# xmcd
#
# Track frame offsets:
#	150
#	20000
#	46302
#	87741
#	121021
#	150990
#	163430
#	191065
#	213977
#	230966
#	254023
#
# Disc length: 3462 seconds
#
# Revision: 1
# Processed by: cddbd v1.4PL0 Copyright (c) Steve Scherf et al.
# Submitted via: audiograbber 1.82.01
#
DISCID=9e0d840b
DTITLE=John Mayall and the Bluesbreakers - 1982-01-16 - The Keystone - Berkeley
DTITLE=, CA - Set 2
DYEAR=1900
DGENRE=
TTITLE0=John Mayall - An Eye For An Eye
TTITLE1=John Mayall - Rocket In The Pocket
TTITLE2=John Mayall - Have You Heard
TTITLE3=John Mayall - Black Cat Moan
TTITLE4=John Mayall - My Time After Awhile
TTITLE5=John Mayall - The Stumble
TTITLE6=John Mayall - Oh, Pretty Woman
TTITLE7=John Mayall - Checkin' Up On My Baby
TTITLE8=John Mayall - Road Show
TTITLE9=John Mayall - Room To Move
TTITLE10=John Mayall - Happy Birthday to Mick Taylor
EXTD=
EXTT0=
EXTT1=
EXTT2=
EXTT3=
EXTT4=
EXTT5=
EXTT6=
EXTT7=
EXTT8=
EXTT9=
EXTT10=
PLAYORDER=
